# xmcd CD database file
#
# Track frame offsets:
#	150
#	27022
#	53715
#	79382
#	107788
#	123732
#	162712
#	180633
#
# Disc length: 2652 seconds
#
# Revision: 0
# Processed by: cddbd v1.5.2PL0 Copyright (c) Steve Scherf et al.
# Submitted via: CDex 1.70beta2
#
DISCID=6a0a5a08
DTITLE=The Turnbull Sessions - made in a day
DYEAR=2005
DGENRE=Rhythmic Soul
TTITLE0=All I Really Want
TTITLE1=Got The Blues
TTITLE2=Home
TTITLE3=Life Is Life
TTITLE4=Whole New World
TTITLE5=All Through Time
TTITLE6=All I Really Want (radio edit)
TTITLE7=Got The Blues (radio edit)
EXTD=YEAR: 2005
EXTT0=
EXTT1=
EXTT2=
EXTT3=
EXTT4=
EXTT5=
EXTT6=
EXTT7=
PLAYORDER=
